<?xml version="1.0" encoding="UTF-8" standalone="no"?>
<!DOCTYPE svg PUBLIC "-//W3C//DTD SVG 1.1//EN" "http://www.w3.org/Graphics/SVG/1.1/DTD/svg11.dtd">
<svg width="100%" height="100%" viewBox="0 0 5378 5696" version="1.1" xmlns="http://www.w3.org/2000/svg" xmlns:xlink="http://www.w3.org/1999/xlink" xml:space="preserve" xmlns:serif="http://www.serif.com/" style="fill-rule:evenodd;clip-rule:evenodd;stroke-linejoin:round;stroke-miterlimit:2;">
    <rect id="Artboard1" x="0" y="0" width="5378" height="5696" style="fill:none;"/>
    <clipPath id="_clip1">
        <rect id="Artboard11" serif:id="Artboard1" x="0" y="0" width="5378" height="5696"/>
    </clipPath>
    <g clip-path="url(#_clip1)">
        <path d="M5378,1344.5L5378,4351.5C5378,5093.55 4775.55,5696 4033.5,5696L1344.5,5696C602.45,5696 -0,5093.55 -0,4351.5L-0,1344.5C-0,602.45 602.45,0 1344.5,0L4033.5,0C4775.55,0 5378,602.45 5378,1344.5ZM4832.138,3722.854C4832.138,3567.371 4705.905,3441.138 4550.422,3441.138L984.854,3441.138C829.371,3441.138 703.138,3567.371 703.138,3722.854L703.138,4286.285C703.138,4441.768 829.371,4568 984.854,4568L4550.422,4568C4705.905,4568 4832.138,4441.768 4832.138,4286.285L4832.138,3722.854ZM2302.5,1106.215C2302.5,950.732 2176.268,824.5 2020.785,824.5L984.854,824.5C829.371,824.5 703.138,950.732 703.138,1106.215L703.138,1669.646C703.138,1825.129 829.371,1951.362 984.854,1951.362L2020.785,1951.362C2176.268,1951.362 2302.5,1825.129 2302.5,1669.646L2302.5,1106.215ZM2312.388,2423.715C2312.388,2268.232 2186.155,2142 2030.672,2142L984.854,2142C829.371,2142 703.138,2268.232 703.138,2423.715L703.138,2987.146C703.138,3142.629 829.371,3268.862 984.854,3268.862L2030.672,3268.862C2186.155,3268.862 2312.388,3142.629 2312.388,2987.146L2312.388,2423.715Z" style="fill:url(#_Linear2);"/>
        <g transform="matrix(1.364641,0,0,1.364641,-266.944649,2905.350918)">
            <circle cx="987.5" cy="805.5" r="137.5" style="fill:rgb(228,165,78);"/>
        </g>
        <g transform="matrix(1.364641,0,0,1.364641,-266.944649,1606.212813)">
            <circle cx="987.5" cy="805.5" r="137.5" style="fill:rgb(228,165,78);"/>
        </g>
        <g transform="matrix(1.364641,0,0,1.364641,-266.944649,288.712813)">
            <circle cx="987.5" cy="805.5" r="137.5" style="fill:rgb(228,165,78);"/>
        </g>
    </g>
    <defs>
        <linearGradient id="_Linear2" x1="0" y1="0" x2="1" y2="0" gradientUnits="userSpaceOnUse" gradientTransform="matrix(5378,5696,-5696,5378,0,0)"><stop offset="0" style="stop-color:white;stop-opacity:1"/><stop offset="1" style="stop-color:rgb(179,179,179);stop-opacity:1"/></linearGradient>
    </defs>
</svg>
