<?xml version="1.0" encoding="UTF-8" standalone="no"?>
<!DOCTYPE svg PUBLIC "-//W3C//DTD SVG 1.1//EN" "http://www.w3.org/Graphics/SVG/1.1/DTD/svg11.dtd">
<svg width="100%" height="100%" viewBox="0 0 5378 5696" version="1.1" xmlns="http://www.w3.org/2000/svg" xmlns:xlink="http://www.w3.org/1999/xlink" xml:space="preserve" xmlns:serif="http://www.serif.com/" style="fill-rule:evenodd;clip-rule:evenodd;stroke-linejoin:round;stroke-miterlimit:2;">
    <rect id="Artboard1" x="0" y="0" width="5378" height="5696" style="fill:none;"/>
    <clipPath id="_clip1">
        <rect id="Artboard11" serif:id="Artboard1" x="0" y="0" width="5378" height="5696"/>
    </clipPath>
    <g clip-path="url(#_clip1)">
        <path d="M5378,1344.5L5378,4351.5C5378,5093.55 4775.55,5696 4033.5,5696L1344.5,5696C602.45,5696 -0,5093.55 -0,4351.5L-0,1344.5C-0,602.45 602.45,0 1344.5,0L4033.5,0C4775.55,0 5378,602.45 5378,1344.5ZM1821,2123.649L1036,2123.649L1036,4059.649L4342,4059.649L4342,2123.649L3557,2123.649L3557,1636.351L1821,1636.351L1821,2123.649Z" style="fill:url(#_Linear2);"/>
        <clipPath id="_clip3">
            <path d="M5378,1344.5L5378,4351.5C5378,5093.55 4775.55,5696 4033.5,5696L1344.5,5696C602.45,5696 -0,5093.55 -0,4351.5L-0,1344.5C-0,602.45 602.45,0 1344.5,0L4033.5,0C4775.55,0 5378,602.45 5378,1344.5ZM1821,2123.649L1036,2123.649L1036,4059.649L4342,4059.649L4342,2123.649L3557,2123.649L3557,1636.351L1821,1636.351L1821,2123.649Z"/>
        </clipPath>
        <g clip-path="url(#_clip3)">
            <g transform="matrix(0.147636,0,-0,0.131914,902.457721,1420.926034)">
                <rect x="641" y="875" width="4226" height="2936" style="fill:rgb(227,165,77);"/>
            </g>
            <g transform="matrix(0.147636,0,-0,0.131914,3662.365605,1420.926034)">
                <rect x="641" y="875" width="4226" height="2936" style="fill:rgb(106,181,160);"/>
            </g>
        </g>
    </g>
    <defs>
        <linearGradient id="_Linear2" x1="0" y1="0" x2="1" y2="0" gradientUnits="userSpaceOnUse" gradientTransform="matrix(5378,5696,-5696,5378,-0,0)"><stop offset="0" style="stop-color:white;stop-opacity:1"/><stop offset="1" style="stop-color:rgb(235,235,235);stop-opacity:1"/></linearGradient>
    </defs>
</svg>
